<svg id="svg" version="1.1" xmlns="http://www.w3.org/2000/svg" xmlns:xlink="http://www.w3.org/1999/xlink" width="400" height="386.6348448687351" viewBox="0, 0, 400,386.6348448687351"><g id="svgg"><path id="path1" d="M309.671 18.934 C 307.756 19.306,305.928 19.703,305.609 19.817 C 305.290 19.930,304.025 20.342,302.798 20.732 C 299.182 21.882,298.726 22.620,298.587 27.563 C 298.447 32.548,298.807 33.103,302.901 34.216 C 308.745 35.804,312.121 36.084,343.327 37.572 C 369.700 38.830,384.495 37.933,387.315 34.904 C 390.039 31.978,388.831 23.696,385.579 23.001 C 384.894 22.855,384.159 22.603,383.946 22.441 C 383.733 22.280,383.037 22.054,382.398 21.939 C 381.760 21.825,379.671 21.442,377.756 21.089 C 373.955 20.387,368.017 19.977,352.611 19.354 C 347.079 19.130,340.193 18.775,337.309 18.565 C 328.704 17.937,313.780 18.136,309.671 18.934 M311.605 50.290 C 310.754 50.478,308.926 50.641,307.544 50.651 C 299.486 50.712,297.072 52.957,297.114 60.348 C 297.132 63.467,299.775 64.866,308.317 66.277 C 316.051 67.555,317.484 67.650,344.487 68.690 C 352.572 69.001,361.756 69.366,364.896 69.501 C 373.418 69.867,383.233 68.569,385.467 66.780 C 386.571 65.896,387.210 63.060,387.226 58.970 C 387.241 55.285,383.689 53.591,373.114 52.237 C 364.287 51.106,314.967 49.545,311.605 50.290 M323.642 77.410 C 323.328 78.925,322.628 88.576,322.629 91.379 C 322.631 95.189,321.878 95.006,339.973 95.591 C 347.349 95.829,353.902 96.048,354.534 96.078 C 356.283 96.160,356.557 95.090,356.997 86.460 C 357.501 76.597,358.664 77.632,346.699 77.299 C 341.440 77.152,334.144 76.909,330.486 76.758 L 323.834 76.484 323.642 77.410 M332.040 101.972 C 331.798 102.602,332.583 104.766,334.874 109.788 L 336.163 112.613 338.188 112.496 C 339.744 112.406,340.308 112.200,340.624 111.605 C 342.104 108.816,343.254 106.760,344.086 105.416 C 344.614 104.565,345.228 103.568,345.452 103.201 C 345.928 102.419,345.775 102.370,340.848 101.758 C 335.845 101.137,332.328 101.222,332.040 101.972 M158.801 103.288 C 153.268 103.867,149.475 104.603,145.193 105.932 C 143.037 106.600,138.158 109.165,136.656 110.420 C 135.857 111.087,134.681 111.962,134.043 112.364 C 133.015 113.012,127.157 117.551,123.985 120.157 C 122.826 121.110,89.086 143.703,87.621 144.507 C 87.195 144.741,84.019 146.703,80.563 148.868 C 77.107 151.033,74.164 152.805,74.023 152.805 C 73.883 152.805,73.197 153.240,72.499 153.772 C 71.802 154.304,71.131 154.739,71.008 154.739 C 70.885 154.739,69.396 155.609,67.698 156.673 C 66.001 157.737,64.496 158.607,64.354 158.607 C 64.212 158.607,63.526 159.043,62.828 159.574 C 62.131 160.106,61.455 160.542,61.325 160.542 C 61.196 160.542,58.355 162.263,55.013 164.367 C 48.955 168.180,48.088 168.699,43.327 171.364 C 41.944 172.138,40.116 173.205,39.265 173.735 C 38.414 174.265,36.412 175.373,34.816 176.198 C 33.221 177.023,30.824 178.364,29.490 179.178 C 28.157 179.992,26.955 180.658,26.819 180.658 C 26.683 180.658,26.033 181.053,25.375 181.536 C 24.717 182.019,23.683 182.667,23.077 182.975 C 22.472 183.284,20.905 184.519,19.595 185.720 C 4.649 199.430,31.617 212.214,60.735 205.221 C 62.118 204.889,63.859 204.470,64.603 204.289 C 71.421 202.631,89.372 193.742,94.222 189.622 C 94.448 189.430,94.970 189.090,95.382 188.866 C 96.561 188.226,105.820 181.342,116.634 173.067 C 124.554 167.007,138.726 156.358,140.935 154.808 C 141.747 154.238,142.617 153.595,142.869 153.380 C 143.121 153.164,143.849 152.659,144.487 152.256 C 145.126 151.854,146.661 150.760,147.900 149.826 C 150.898 147.565,153.036 148.844,155.212 154.201 C 156.793 158.091,160.644 166.887,162.561 170.986 C 167.107 180.707,173.082 192.004,177.237 198.733 C 178.054 200.058,178.723 201.224,178.723 201.324 C 178.723 202.196,196.054 228.036,197.294 229.014 C 197.429 229.120,198.304 230.251,199.238 231.528 C 206.788 241.846,216.194 247.958,229.207 251.000 C 246.604 255.068,263.660 253.227,274.855 246.073 C 280.610 242.396,291.858 231.346,297.454 223.872 C 299.651 220.938,302.602 217.073,304.012 215.284 C 305.423 213.495,308.143 210.003,310.058 207.525 C 311.973 205.046,315.280 200.814,317.408 198.119 C 319.536 195.425,322.416 191.743,323.809 189.937 C 325.201 188.131,326.629 186.306,326.981 185.880 C 327.333 185.455,328.718 183.686,330.058 181.950 C 331.399 180.214,334.497 176.207,336.944 173.045 C 339.391 169.884,341.567 167.019,341.779 166.679 C 341.992 166.338,342.906 164.980,343.810 163.660 C 344.715 162.340,345.455 161.189,345.455 161.101 C 345.455 161.014,346.110 159.851,346.911 158.517 C 353.766 147.103,352.413 138.736,342.955 134.062 C 341.426 133.307,339.918 132.689,339.604 132.689 C 339.290 132.689,338.868 132.547,338.665 132.373 C 337.317 131.217,323.295 129.207,316.580 129.207 C 303.159 129.207,295.331 132.814,290.351 141.293 C 286.407 148.007,283.369 152.023,276.374 159.768 C 275.701 160.513,273.953 162.452,272.488 164.077 C 268.071 168.980,261.333 176.221,254.718 183.172 C 251.276 186.789,247.986 190.314,247.406 191.006 C 245.800 192.923,244.827 192.191,238.871 184.576 C 237.811 183.221,236.160 181.132,235.201 179.934 C 223.164 164.891,208.404 140.848,202.157 126.112 C 201.751 125.155,200.926 123.299,200.323 121.988 C 199.720 120.677,199.226 119.482,199.226 119.332 C 199.226 116.580,193.506 108.636,190.293 106.924 C 184.221 103.691,170.312 102.085,158.801 103.288 M143.859 171.880 C 139.897 174.899,135.110 178.625,133.221 180.161 C 131.332 181.696,128.632 183.872,127.221 184.996 C 125.083 186.699,120.668 190.241,117.922 192.455 C 102.759 204.686,96.696 209.379,91.876 212.614 C 88.702 214.744,80.286 219.729,79.863 219.729 C 79.766 219.729,78.774 220.177,77.658 220.724 C 60.648 229.062,41.619 230.526,28.326 224.520 C 27.203 224.013,26.199 223.598,26.094 223.598 C 25.989 223.598,25.214 223.162,24.371 222.631 C 21.411 220.762,20.116 221.998,20.116 226.692 C 20.116 235.033,32.654 241.525,48.634 241.458 C 53.359 241.438,54.802 241.288,60.735 240.196 C 69.266 238.625,80.366 233.917,89.362 228.053 C 94.599 224.639,107.374 215.042,108.704 213.523 C 108.810 213.401,110.377 212.103,112.186 210.638 C 113.994 209.173,115.561 207.878,115.667 207.759 C 115.774 207.641,116.644 206.910,117.602 206.136 C 118.559 205.362,119.778 204.342,120.309 203.868 C 120.841 203.395,122.060 202.375,123.017 201.601 C 123.975 200.827,124.845 200.095,124.952 199.974 C 125.137 199.764,129.875 195.850,138.500 188.781 C 140.706 186.973,143.218 184.987,144.080 184.367 C 144.942 183.748,145.735 183.135,145.841 183.005 C 146.373 182.355,151.248 178.760,151.744 178.653 C 152.493 178.491,155.336 182.103,156.126 184.221 C 156.466 185.133,156.890 186.228,157.067 186.654 C 157.243 187.079,158.110 189.255,158.992 191.489 C 159.874 193.723,160.931 196.289,161.342 197.191 C 161.753 198.093,162.089 198.935,162.089 199.063 C 162.089 199.190,162.611 200.423,163.250 201.802 C 163.888 203.181,164.410 204.380,164.410 204.466 C 164.410 204.552,164.909 205.715,165.519 207.050 C 166.129 208.385,167.019 210.348,167.496 211.412 C 169.453 215.776,176.669 229.982,179.384 234.816 C 179.802 235.561,180.720 237.215,181.423 238.491 C 182.126 239.768,182.997 241.248,183.357 241.779 C 183.718 242.311,184.130 243.008,184.273 243.327 C 184.619 244.101,185.343 245.278,189.520 251.865 C 191.467 254.935,193.272 257.785,193.532 258.198 C 193.791 258.611,194.862 260.178,195.911 261.680 C 196.960 263.181,198.527 265.465,199.393 266.755 C 208.922 280.947,221.554 287.835,241.628 289.784 C 260.028 291.572,274.512 284.734,289.074 267.387 C 290.627 265.537,292.202 263.588,292.573 263.056 C 292.945 262.524,293.897 261.152,294.690 260.006 C 295.483 258.860,296.480 257.441,296.905 256.853 C 297.331 256.264,301.154 250.935,305.402 245.010 C 309.649 239.084,314.383 232.546,315.920 230.481 C 317.458 228.416,318.900 226.385,319.124 225.966 C 319.347 225.548,319.758 224.974,320.035 224.692 C 320.312 224.409,322.784 221.044,325.529 217.215 C 328.273 213.385,330.747 210.020,331.026 209.738 C 331.305 209.455,331.733 208.846,331.978 208.384 C 332.222 207.922,332.986 206.847,333.674 205.996 C 339.312 199.030,345.471 188.079,347.720 181.022 C 349.097 176.702,348.471 169.984,346.968 172.944 C 346.812 173.250,345.823 175.245,344.771 177.376 C 342.899 181.166,338.332 188.318,334.960 192.739 C 330.413 198.699,311.388 224.182,307.155 229.981 C 302.740 236.030,303.116 235.521,302.016 236.944 C 301.523 237.582,299.923 239.758,298.461 241.779 C 296.999 243.801,295.685 245.542,295.541 245.648 C 295.398 245.754,294.819 246.538,294.256 247.389 C 293.693 248.240,292.771 249.632,292.208 250.484 C 288.047 256.769,273.607 269.110,267.214 271.842 C 263.898 273.260,262.997 273.544,258.801 274.491 C 252.929 275.817,237.115 276.008,235.085 274.778 C 234.913 274.674,233.868 274.450,232.763 274.281 C 226.154 273.268,216.748 269.566,212.699 266.384 C 212.130 265.936,210.952 265.056,210.081 264.428 C 206.028 261.502,200.304 254.461,193.243 243.714 C 190.937 240.203,188.576 236.634,187.997 235.783 C 186.547 233.651,181.320 224.858,178.109 219.149 C 174.691 213.072,168.927 201.676,165.001 193.230 C 163.233 189.429,156.289 172.760,156.278 172.292 C 156.263 171.637,152.206 166.545,151.638 166.469 C 151.322 166.426,147.822 168.861,143.859 171.880 M23.032 301.050 C 22.325 303.173,22.054 305.121,22.052 308.092 C 22.051 309.990,21.880 312.601,21.671 313.895 C 21.290 316.259,20.669 323.702,20.102 332.689 C 19.934 335.348,19.506 340.658,19.151 344.487 C 18.795 348.317,18.416 353.825,18.307 356.726 L 18.110 362.002 25.707 362.287 C 33.263 362.570,35.775 362.446,36.465 361.755 C 36.938 361.283,37.461 356.774,37.909 349.323 C 38.507 339.369,39.020 333.085,39.266 332.687 C 39.757 331.893,43.126 337.085,49.812 348.936 C 50.352 349.894,51.344 351.547,52.016 352.611 C 52.689 353.675,53.365 354.807,53.520 355.126 C 53.675 355.445,54.013 356.055,54.270 356.481 C 58.613 363.665,56.934 362.850,67.395 362.857 C 77.683 362.864,76.786 363.346,77.096 357.640 C 77.483 350.497,78.150 341.036,78.527 337.331 C 78.924 333.439,79.560 324.708,80.079 316.054 C 80.251 313.182,80.521 308.891,80.678 306.518 L 80.963 302.205 79.766 301.586 C 77.595 300.464,62.356 300.681,62.119 301.838 C 61.734 303.719,61.453 306.844,61.119 312.959 C 60.324 327.532,59.964 331.273,59.413 330.721 C 59.140 330.448,44.874 306.684,44.874 306.502 C 44.874 306.408,44.439 305.761,43.907 305.063 C 43.375 304.366,42.940 303.627,42.940 303.421 C 42.940 303.215,42.461 302.600,41.876 302.055 C 40.613 300.879,23.394 299.960,23.032 301.050 M292.191 304.305 C 291.878 305.118,292.320 364.014,292.644 364.846 C 292.882 365.455,308.282 366.186,309.768 365.659 C 310.141 365.527,310.251 362.589,310.251 352.739 C 310.251 338.704,310.444 337.242,312.560 335.215 C 314.741 333.126,318.817 333.673,320.158 336.236 C 320.848 337.556,320.978 339.379,321.767 358.801 L 322.050 365.764 330.727 365.868 C 335.500 365.926,339.524 365.839,339.671 365.675 C 340.023 365.282,339.401 335.431,338.984 332.689 C 337.149 320.622,323.257 315.744,312.440 323.368 C 309.927 325.140,309.884 325.025,309.839 316.441 C 309.793 307.807,309.601 304.870,309.036 304.189 C 308.333 303.342,292.518 303.451,292.191 304.305 M104.189 317.998 C 92.384 321.050,86.074 329.468,86.074 342.166 C 86.074 357.701,95.577 365.239,113.909 364.244 C 123.665 363.714,129.744 360.684,134.283 354.089 C 136.322 351.127,136.106 351.057,121.138 349.840 C 118.800 349.650,118.617 349.698,117.463 350.814 C 112.848 355.271,106.574 353.956,104.669 348.132 C 103.677 345.098,102.826 345.243,120.680 345.400 C 139.055 345.561,137.331 346.043,137.331 340.741 C 137.331 325.319,128.249 317.151,111.219 317.255 C 108.408 317.272,106.021 317.524,104.189 317.998 M166.466 318.949 C 165.363 319.509,163.854 320.638,163.112 321.459 C 161.577 323.158,161.315 323.095,161.315 321.032 C 161.315 318.850,160.832 318.730,152.551 318.850 L 145.316 318.956 144.972 320.116 C 144.783 320.754,144.473 326.325,144.284 332.495 C 144.095 338.665,143.761 346.673,143.542 350.290 C 142.882 361.204,142.960 363.500,144.004 363.779 C 145.942 364.299,160.041 364.046,160.508 363.484 C 160.798 363.134,161.030 360.170,161.167 355.070 C 161.680 335.950,163.996 330.615,171.072 332.248 C 172.121 332.490,173.233 332.689,173.543 332.689 C 174.297 332.689,179.572 321.728,179.237 320.857 C 178.313 318.447,169.924 317.194,166.466 318.949 M197.872 318.965 C 184.582 321.812,177.218 332.841,179.281 346.809 C 181.361 360.887,196.780 368.811,213.346 364.315 C 229.596 359.905,235.147 337.415,223.006 325.178 C 217.360 319.487,207.180 316.971,197.872 318.965 M251.671 319.979 C 228.799 326.351,229.126 359.331,252.119 365.245 C 274.942 371.116,292.628 351.889,282.955 331.721 C 278.126 321.651,264.298 316.462,251.671 319.979 M114.044 328.402 C 116.760 328.927,119.149 332.034,119.149 335.042 L 119.149 336.170 111.992 336.170 L 104.836 336.170 104.836 335.199 C 104.836 333.904,106.201 331.061,107.333 329.997 C 109.048 328.386,111.251 327.862,114.044 328.402 M206.615 331.193 C 213.678 333.549,214.094 349.116,207.181 352.366 C 201.219 355.168,196.518 350.677,196.518 342.177 C 196.518 333.976,200.846 329.268,206.615 331.193 M263.039 332.293 C 264.577 333.078,265.525 334.182,266.697 336.557 C 267.487 338.159,267.696 347.546,266.958 348.284 C 266.727 348.515,266.538 349.001,266.538 349.365 C 266.538 349.728,265.743 350.843,264.773 351.842 L 263.007 353.658 259.956 353.519 C 254.784 353.285,252.243 349.672,252.243 342.553 C 252.243 334.133,257.274 329.352,263.039 332.293 " stroke="none" fill="#cdced0" fill-rule="evenodd" data-index="1" style="opacity: 1; visibility: visible; fill: rgb(255, 255, 255);"></path><path id="path2" d="M148.892 150.091 C 148.172 150.725,147.397 151.248,147.172 151.251 C 146.946 151.254,146.424 151.562,146.011 151.934 C 145.599 152.307,144.565 153.095,143.714 153.686 C 141.834 154.992,139.791 156.464,138.491 157.450 C 136.386 159.046,127.868 165.403,126.313 166.538 C 125.730 166.963,125.023 167.529,124.743 167.795 C 124.463 168.061,124.110 168.279,123.960 168.279 C 123.809 168.279,123.318 168.670,122.868 169.149 C 122.418 169.628,121.558 170.337,120.957 170.725 C 120.355 171.113,119.485 171.756,119.023 172.153 C 117.988 173.044,116.075 174.494,111.799 177.630 C 109.990 178.956,108.424 180.148,108.317 180.279 C 108.211 180.409,107.079 181.287,105.803 182.229 C 104.526 183.171,103.395 184.029,103.288 184.137 C 103.182 184.245,102.813 184.507,102.468 184.720 C 102.123 184.932,100.868 185.846,99.680 186.750 C 98.491 187.655,97.352 188.395,97.147 188.395 C 96.943 188.395,96.718 188.525,96.647 188.685 C 96.465 189.094,91.702 192.263,91.268 192.263 C 91.070 192.263,90.909 192.408,90.909 192.586 C 90.909 193.111,80.897 198.635,76.402 200.589 C 75.551 200.960,74.169 201.588,73.332 201.985 C 72.494 202.383,71.406 202.708,70.914 202.708 C 70.422 202.708,70.019 202.841,70.019 203.004 C 70.019 203.417,66.452 204.642,65.251 204.642 C 64.707 204.642,64.163 204.802,64.043 204.998 C 63.737 205.493,60.110 206.308,53.385 207.393 C 49.986 207.941,37.808 207.919,35.397 207.361 C 34.333 207.114,32.679 206.771,31.721 206.598 C 30.764 206.426,29.110 206.004,28.046 205.661 C 25.355 204.793,25.345 204.796,23.007 207.007 C 19.401 210.418,18.186 214.045,19.554 217.319 C 20.165 218.780,21.548 220.503,22.110 220.503 C 22.282 220.503,23.375 221.112,24.539 221.857 C 25.703 222.602,26.746 223.211,26.857 223.211 C 26.968 223.211,27.977 223.624,29.100 224.128 C 30.223 224.633,31.838 225.232,32.689 225.459 C 33.540 225.687,35.193 226.165,36.364 226.521 C 39.706 227.541,53.868 227.414,58.607 226.322 C 60.522 225.881,62.611 225.421,63.250 225.301 C 63.888 225.181,64.758 224.947,65.184 224.781 C 65.609 224.615,67.002 224.154,68.279 223.756 C 69.555 223.358,71.426 222.638,72.435 222.155 C 73.445 221.672,74.440 221.277,74.647 221.277 C 75.247 221.277,84.402 216.578,85.723 215.593 C 86.382 215.102,87.061 214.700,87.234 214.700 C 87.407 214.700,88.118 214.265,88.816 213.733 C 89.513 213.201,90.182 212.766,90.302 212.766 C 90.579 212.766,95.953 208.938,96.639 208.252 C 96.922 207.969,97.283 207.737,97.440 207.737 C 97.598 207.737,98.064 207.427,98.476 207.048 C 98.889 206.669,99.923 205.843,100.774 205.211 C 101.625 204.579,103.278 203.304,104.449 202.378 C 105.619 201.451,107.164 200.233,107.881 199.670 C 109.261 198.588,114.007 194.680,114.754 194.012 C 114.996 193.795,115.680 193.269,116.273 192.843 C 117.289 192.115,119.462 190.373,121.339 188.781 C 122.459 187.832,126.003 184.995,127.864 183.559 C 128.691 182.921,130.419 181.519,131.705 180.444 C 132.991 179.369,134.739 177.976,135.590 177.349 C 136.441 176.722,137.340 176.018,137.588 175.786 C 137.836 175.553,139.750 174.073,141.841 172.497 C 143.933 170.922,145.875 169.415,146.157 169.149 C 146.439 168.883,146.790 168.665,146.937 168.665 C 147.084 168.665,147.898 168.059,148.747 167.319 C 150.481 165.805,152.273 165.530,153.203 166.634 C 154.744 168.463,156.597 171.359,157.226 172.921 C 158.139 175.189,158.608 176.337,159.201 177.756 C 159.468 178.395,159.897 179.439,160.155 180.077 C 160.865 181.837,161.405 183.123,163.081 187.041 C 165.653 193.055,173.905 210.306,174.461 210.832 C 174.574 210.938,175.234 212.157,175.929 213.540 C 176.623 214.923,177.729 217.012,178.386 218.182 C 179.044 219.352,179.971 221.006,180.448 221.857 C 180.925 222.708,182.037 224.582,182.920 226.022 C 183.803 227.462,184.526 228.811,184.526 229.020 C 184.526 229.229,184.680 229.400,184.868 229.400 C 185.056 229.400,185.312 229.705,185.437 230.077 C 185.684 230.814,186.179 231.634,187.523 233.533 C 188.002 234.210,188.395 234.890,188.395 235.044 C 188.395 235.198,188.830 235.894,189.362 236.591 C 189.894 237.289,190.329 238.031,190.329 238.240 C 190.329 238.449,190.460 238.678,190.621 238.749 C 190.781 238.820,191.691 240.097,192.643 241.586 C 193.595 243.075,194.469 244.381,194.585 244.487 C 194.701 244.594,195.725 246.063,196.859 247.752 C 197.994 249.441,199.644 251.770,200.525 252.927 C 201.407 254.085,202.302 255.304,202.515 255.635 C 203.823 257.676,210.835 264.603,211.592 264.603 C 211.732 264.603,212.184 264.908,212.596 265.280 C 214.485 266.985,218.808 269.263,224.371 271.485 C 234.398 275.488,255.840 275.911,264.217 272.270 C 264.749 272.039,265.532 271.726,265.957 271.575 C 271.416 269.632,276.784 265.592,285.087 257.180 C 289.558 252.650,291.005 250.900,296.160 243.783 C 299.349 239.381,306.500 229.600,308.996 226.224 C 309.580 225.435,311.070 223.391,312.307 221.682 C 313.543 219.973,314.762 218.356,315.015 218.088 C 315.267 217.821,316.247 216.557,317.192 215.280 C 318.137 214.004,319.051 212.901,319.223 212.830 C 319.395 212.760,319.536 212.497,319.536 212.246 C 319.536 211.996,319.929 211.358,320.411 210.828 C 320.892 210.298,322.484 208.211,323.949 206.190 C 325.414 204.168,326.761 202.456,326.943 202.386 C 327.124 202.315,327.273 202.025,327.273 201.741 C 327.273 201.457,327.404 201.167,327.564 201.096 C 328.009 200.899,334.564 192.141,337.359 188.008 C 338.726 185.986,339.975 184.275,340.135 184.204 C 340.295 184.133,340.426 183.885,340.426 183.654 C 340.426 183.422,340.669 182.958,340.967 182.622 C 341.815 181.667,344.551 176.568,345.967 173.308 C 346.198 172.776,346.683 171.992,347.046 171.567 C 348.625 169.716,349.278 162.073,348.006 160.333 C 347.467 159.596,345.899 160.695,345.854 161.842 C 345.847 162.025,344.971 163.371,343.907 164.834 C 342.843 166.296,341.973 167.670,341.973 167.886 C 341.973 168.102,341.811 168.279,341.612 168.279 C 341.414 168.279,341.154 168.583,341.034 168.956 C 340.915 169.328,340.370 170.155,339.825 170.793 C 339.279 171.431,338.535 172.302,338.172 172.727 C 337.808 173.153,336.995 174.197,336.364 175.048 C 335.219 176.592,332.284 180.291,331.913 180.658 C 331.805 180.764,330.946 181.896,330.004 183.172 C 329.062 184.449,328.192 185.580,328.070 185.687 C 327.948 185.793,327.337 186.576,326.711 187.427 C 326.085 188.279,325.469 189.062,325.343 189.168 C 325.072 189.396,319.159 196.983,317.240 199.566 C 316.509 200.549,315.725 201.541,315.499 201.769 C 315.000 202.273,313.819 203.783,311.854 206.431 C 311.045 207.522,309.700 209.261,308.866 210.296 C 308.032 211.331,307.219 212.354,307.059 212.569 C 306.900 212.783,305.558 214.505,304.077 216.395 C 302.597 218.285,301.074 220.258,300.693 220.779 C 300.021 221.699,297.710 224.728,295.611 227.439 C 291.738 232.443,282.811 241.181,278.067 244.613 C 277.152 245.275,276.312 245.942,276.202 246.094 C 275.007 247.745,264.730 251.791,258.801 252.944 C 251.117 254.438,231.513 253.678,229.613 251.812 C 229.411 251.613,228.594 251.451,227.798 251.451 C 227.003 251.451,226.244 251.277,226.112 251.064 C 225.981 250.851,225.492 250.676,225.026 250.675 C 224.559 250.673,223.679 250.412,223.070 250.094 C 222.460 249.776,221.753 249.516,221.498 249.516 C 221.243 249.516,220.132 249.081,219.030 248.549 C 217.927 248.017,216.850 247.582,216.636 247.582 C 216.423 247.582,216.246 247.452,216.244 247.292 C 216.242 247.132,215.459 246.658,214.503 246.238 C 213.548 245.818,212.766 245.340,212.766 245.174 C 212.766 245.009,212.580 244.874,212.353 244.874 C 212.007 244.874,210.932 244.160,208.704 242.449 C 206.057 240.416,203.467 237.931,201.553 235.587 C 200.598 234.419,199.722 233.375,199.606 233.269 C 199.489 233.162,198.706 232.118,197.865 230.948 C 197.025 229.778,196.024 228.477,195.642 228.057 C 195.260 227.638,194.300 226.336,193.508 225.165 C 192.092 223.068,189.863 219.932,189.214 219.122 C 189.031 218.895,188.125 217.502,187.200 216.028 C 186.275 214.553,185.382 213.288,185.216 213.217 C 185.049 213.146,184.913 212.842,184.913 212.540 C 184.913 212.239,184.767 211.992,184.588 211.992 C 184.410 211.992,184.065 211.601,183.823 211.122 C 183.581 210.643,182.941 209.555,182.401 208.704 C 181.861 207.853,181.315 206.852,181.187 206.480 C 181.059 206.107,180.800 205.803,180.613 205.803 C 180.425 205.803,180.271 205.542,180.271 205.222 C 180.271 204.903,180.100 204.642,179.891 204.642 C 179.683 204.642,179.403 204.207,179.269 203.675 C 179.136 203.143,178.871 202.708,178.681 202.708 C 178.492 202.708,178.337 202.522,178.337 202.295 C 178.337 202.068,177.901 201.312,177.369 200.615 C 176.838 199.917,176.402 199.058,176.402 198.706 C 176.402 198.354,176.232 198.066,176.023 198.066 C 175.814 198.066,175.534 197.631,175.401 197.099 C 175.267 196.567,175.023 196.132,174.858 196.132 C 174.693 196.132,174.461 195.827,174.341 195.455 C 174.129 194.793,172.243 191.375,171.149 189.665 C 170.847 189.194,170.600 188.556,170.600 188.247 C 170.600 187.938,170.461 187.627,170.291 187.556 C 169.842 187.369,165.430 178.753,161.410 170.213 C 160.659 168.617,159.634 166.468,159.132 165.438 C 158.631 164.408,158.221 163.412,158.221 163.224 C 158.221 163.037,157.764 161.878,157.207 160.649 C 156.649 159.420,155.941 157.805,155.633 157.060 C 153.721 152.437,153.594 152.207,152.008 150.506 C 150.262 148.633,150.508 148.666,148.892 150.091 " stroke="none" fill="#040404" fill-rule="evenodd" data-index="2" style="opacity: 1;"></path></g></svg>