<svg id="svg" version="1.1" xmlns="http://www.w3.org/2000/svg" xmlns:xlink="http://www.w3.org/1999/xlink" width="400" height="308.01033591731266" viewBox="0, 0, 400,308.01033591731266"><g id="svgg"><path id="path1" d="M273.498 32.058 C 269.099 32.454,264.192 34.068,262.481 35.680 C 261.498 36.606,261.184 42.680,262.060 43.833 C 262.861 44.888,270.527 46.846,273.832 46.839 C 274.496 46.837,276.703 46.975,278.737 47.145 C 280.770 47.314,286.387 47.595,291.217 47.768 C 296.048 47.941,303.649 48.231,308.109 48.413 C 322.290 48.991,333.282 47.860,335.447 45.600 C 336.197 44.817,336.269 44.498,336.427 41.253 C 336.632 37.022,336.313 36.503,332.873 35.482 C 327.184 33.793,324.705 33.545,304.468 32.641 C 283.602 31.709,278.456 31.612,273.498 32.058 M273.498 58.425 C 261.256 59.666,260.789 59.907,260.493 65.140 C 260.316 68.264,260.342 68.465,261.006 69.172 C 262.786 71.067,271.303 72.429,285.054 73.020 C 289.376 73.205,295.767 73.510,299.255 73.696 C 316.641 74.624,329.904 74.165,333.202 72.519 C 335.138 71.554,336.175 64.714,334.606 63.254 C 332.603 61.389,322.333 59.472,314.330 59.469 C 312.720 59.469,307.242 59.267,302.157 59.021 C 292.587 58.558,275.658 58.206,273.498 58.425 M282.469 80.376 C 281.511 81.926,281.128 94.463,282.025 94.945 C 282.846 95.385,288.993 95.736,301.105 96.034 L 309.298 96.235 309.652 92.108 C 309.847 89.839,310.043 86.525,310.088 84.746 L 310.169 81.510 306.780 81.301 C 304.915 81.185,299.368 80.946,294.453 80.769 C 289.538 80.592,284.876 80.358,284.093 80.249 C 283.214 80.126,282.593 80.175,282.469 80.376 M289.445 100.959 C 288.881 101.209,288.968 101.842,289.823 103.710 C 290.242 104.626,290.673 105.692,290.781 106.078 C 291.509 108.693,292.545 109.861,294.133 109.861 C 295.861 109.861,296.102 109.604,298.448 105.239 C 299.086 104.052,299.731 102.950,299.881 102.789 C 300.755 101.852,300.169 101.461,297.612 101.276 C 292.274 100.889,289.817 100.794,289.445 100.959 M146.841 101.730 C 136.744 103.197,133.488 104.604,124.961 111.188 C 117.265 117.131,115.795 118.148,102.157 126.972 C 100.293 128.178,96.895 130.401,94.607 131.911 C 92.319 133.422,89.476 135.266,88.290 136.009 C 85.032 138.050,74.817 144.279,74.106 144.659 C 73.388 145.042,61.111 152.426,59.851 153.232 C 59.391 153.527,58.806 153.862,58.552 153.977 C 58.297 154.092,57.535 154.556,56.857 155.010 C 55.459 155.944,52.664 157.614,50.385 158.878 C 49.538 159.347,48.359 160.004,47.766 160.337 C 47.173 160.670,45.647 161.500,44.376 162.182 C 43.105 162.864,41.926 163.525,41.757 163.651 C 41.587 163.777,40.755 164.257,39.908 164.717 C 26.524 171.990,22.393 176.547,24.245 181.994 C 26.651 189.075,44.304 193.624,57.011 190.439 C 57.604 190.290,59.129 189.946,60.401 189.673 C 61.672 189.401,62.953 189.047,63.247 188.888 C 63.541 188.728,63.998 188.598,64.262 188.598 C 65.511 188.598,72.756 185.605,78.123 182.873 C 83.278 180.249,95.841 172.196,97.072 170.727 C 97.157 170.626,98.405 169.678,99.846 168.620 C 101.287 167.562,102.675 166.523,102.932 166.310 C 103.189 166.097,105.131 164.601,107.247 162.985 C 109.363 161.369,113.057 158.532,115.457 156.680 C 123.760 150.271,128.354 146.823,134.041 142.733 L 139.753 138.624 140.630 139.651 C 142.331 141.642,142.976 142.871,144.241 146.533 C 144.944 148.567,145.693 150.647,145.907 151.156 C 146.120 151.664,147.170 154.299,148.239 157.011 C 151.610 165.564,160.607 185.000,162.076 186.900 C 162.208 187.071,163.053 188.598,163.955 190.293 C 164.856 191.988,166.124 194.244,166.772 195.306 C 167.420 196.368,167.951 197.296,167.951 197.367 C 167.951 197.614,176.179 210.637,178.278 213.713 C 180.957 217.639,184.104 221.413,185.997 222.972 C 186.811 223.643,187.903 224.551,188.423 224.990 C 189.813 226.165,192.709 227.951,195.359 229.268 C 199.571 231.362,201.284 231.887,210.632 233.952 C 214.012 234.699,226.675 234.507,230.046 233.659 C 239.123 231.373,243.095 229.061,250.244 221.900 C 256.484 215.649,257.871 213.823,269.084 197.072 C 274.758 188.598,280.579 179.931,282.021 177.812 C 283.462 175.693,286.143 171.741,287.977 169.029 C 289.811 166.317,292.315 162.643,293.541 160.863 C 304.436 145.043,306.637 135.290,300.574 129.694 C 299.610 128.804,296.326 126.656,295.932 126.657 C 295.796 126.658,294.854 126.324,293.837 125.916 C 292.162 125.245,290.467 124.845,285.362 123.916 C 279.314 122.817,270.527 122.879,265.994 124.054 C 259.298 125.790,256.899 127.916,252.890 135.670 C 251.530 138.298,250.194 140.225,245.763 145.950 C 245.254 146.607,243.453 148.810,241.760 150.845 C 240.067 152.880,238.451 154.823,238.169 155.162 C 237.314 156.189,229.472 165.307,229.131 165.669 C 228.957 165.855,227.704 167.296,226.348 168.871 C 221.307 174.727,218.422 177.969,218.169 178.063 C 217.562 178.289,206.494 163.565,201.185 155.470 C 198.010 150.628,196.302 147.928,196.302 147.748 C 196.302 147.657,195.804 146.803,195.195 145.851 C 192.540 141.702,186.816 130.803,184.060 124.653 C 183.528 123.467,182.737 121.708,182.302 120.744 C 181.866 119.780,181.510 118.912,181.510 118.815 C 181.510 118.717,181.249 118.049,180.930 117.331 C 180.611 116.613,180.174 115.539,179.959 114.946 C 176.748 106.084,173.362 103.309,164.009 101.873 C 160.531 101.340,150.126 101.253,146.841 101.730 M138.483 155.253 C 137.445 156.050,136.133 157.049,135.568 157.473 C 133.782 158.812,123.777 166.774,122.631 167.768 C 122.027 168.292,120.992 169.137,120.331 169.646 C 119.669 170.154,118.707 170.929,118.193 171.367 C 116.597 172.727,109.271 178.757,107.363 180.282 C 106.836 180.703,104.270 182.783,101.662 184.904 C 83.187 199.925,70.859 206.263,55.778 208.493 C 46.975 209.794,36.444 207.767,31.185 203.759 C 29.906 202.784,29.350 203.197,28.924 205.438 C 27.895 210.860,32.017 215.368,40.394 217.978 C 53.591 222.091,69.750 218.403,86.595 207.431 C 89.235 205.712,89.730 205.360,93.374 202.614 C 95.161 201.268,102.455 195.363,104.466 193.635 C 121.633 178.881,140.436 163.328,141.106 163.328 C 141.804 163.328,144.115 167.304,144.956 169.954 C 145.441 171.479,146.154 173.629,146.542 174.730 C 146.929 175.832,147.484 177.427,147.776 178.274 C 148.402 180.097,150.333 185.406,150.690 186.287 C 150.827 186.626,151.113 187.388,151.325 187.982 C 151.537 188.575,151.884 189.476,152.095 189.985 C 152.307 190.493,153.274 192.851,154.245 195.223 C 155.216 197.596,156.289 200.162,156.629 200.924 C 156.970 201.687,157.587 203.074,158.000 204.006 C 161.989 213.008,168.565 225.958,172.762 233.077 C 173.845 234.913,174.730 236.466,174.730 236.528 C 174.730 236.872,181.735 247.803,182.801 249.123 C 187.865 255.391,194.577 260.105,201.695 262.393 C 205.554 263.634,205.895 263.729,207.858 264.118 C 217.398 266.008,225.897 265.600,233.436 262.890 C 243.036 259.440,254.839 246.823,264.020 230.200 C 264.254 229.777,264.845 228.806,265.333 228.043 C 265.821 227.280,266.674 225.894,267.227 224.961 C 267.780 224.029,274.052 213.975,281.164 202.619 C 298.531 174.890,301.734 168.355,301.332 161.479 C 301.211 159.422,300.837 159.322,300.185 161.171 C 299.466 163.210,296.616 168.981,294.966 171.740 C 293.257 174.596,293.240 174.623,290.293 179.191 C 289.022 181.162,287.389 183.703,286.665 184.838 C 285.941 185.974,284.048 188.914,282.459 191.371 C 279.380 196.134,272.547 206.783,269.492 211.581 C 268.475 213.178,266.394 216.434,264.869 218.816 C 263.344 221.198,261.957 223.388,261.787 223.682 C 255.408 234.755,244.907 246.073,237.596 249.756 C 229.511 253.828,219.280 254.734,207.550 252.418 C 195.799 250.097,186.641 243.960,180.144 234.052 C 177.976 230.746,176.242 228.024,175.825 227.273 C 175.637 226.934,174.586 225.165,173.489 223.342 C 171.255 219.630,171.387 219.857,169.501 216.484 C 166.631 211.351,165.993 210.141,162.602 203.390 C 160.686 199.576,158.312 194.653,157.327 192.450 C 156.342 190.247,155.222 187.750,154.838 186.903 C 154.454 186.055,153.635 184.114,153.018 182.589 C 152.400 181.063,151.777 179.538,151.633 179.199 C 151.358 178.555,150.037 175.157,149.236 173.035 C 148.980 172.357,148.660 171.525,148.524 171.186 C 148.030 169.951,146.693 166.161,145.338 162.152 C 143.981 158.139,141.549 153.752,140.701 153.790 C 140.519 153.798,139.521 154.456,138.483 155.253 " stroke="none" fill="#d0d0d4" fill-rule="evenodd" data-index="1"></path></g></svg>